<?xml version="1.0" encoding="utf-8"?>
<!-- Generator: Adobe Illustrator 19.1.0, SVG Export Plug-In . SVG Version: 6.00 Build 0)  -->
<svg version="1.1" id="Layer_1" xmlns="http://www.w3.org/2000/svg" xmlns:xlink="http://www.w3.org/1999/xlink" x="0px" y="0px"
	 viewBox="-80 81.6 338.4 338.4" style="enable-background:new -80 81.6 338.4 338.4;" xml:space="preserve">
<style type="text/css">
	.st0{display:none;}
	.st1{fill:#66D6D3;}
	.st2{fill:#2B2B2B;}
	.st3{fill:#60D3D1;}
</style>
<g id="gray_background" class="st0">
</g>
<g id="Layer_1_1_">
	<g>
		<g>
			<g>
				<path class="st1" d="M156.9,309.1c0,11.2,9.1,20.2,20.2,20.2c9.8,0,17.9-6.9,19.8-16.2l0.4-0.5c5.4,1.5,11.3,1.4,17-0.8
					c13.9-5.4,20.9-21,15.5-35l-0.2-0.7c5.3-2.1,9.4-5.8,12.6-10.9c8-12.8,4.2-29.7-8.6-37.7c-1.4-0.9-2.9-1.7-4.5-2.3l0,0
					c1.7-3.6,2.7-7.6,2.7-11.8c0-15.1-12.2-27.4-27.4-27.4c-4.4,0-8.5,1-12.1,2.8v0.1c-2.1-7.6-9.1-13.2-17.4-13.2
					c-10,0-18.1,8.1-18.1,18.1v115.5v-0.2L156.9,309.1L156.9,309.1z"/>
			</g>
		</g>
		<g>
			<g>
				<g>
					<path class="st2" d="M168.7,323.8c-12.5,0-22.6-10.1-22.6-22.6c0-1.2,1-2.2,2.2-2.2c1.2,0,2.2,1,2.2,2.2
						c0,10,8.1,18.1,18.1,18.1s18.1-8.1,18.1-18.1c0-6.6-3.6-12.7-9.4-15.9c-1.1-0.6-1.5-2-0.9-3.1c0.6-1.1,2-1.5,3.1-0.9
						c7.3,4,11.8,11.6,11.8,19.8C191.2,313.7,181.1,323.8,168.7,323.8z"/>
				</g>
				<g>
					<path class="st2" d="M197.6,308.3c-3.3,0-6.6-0.6-9.7-1.7c-1.2-0.4-1.8-1.7-1.3-2.9c0.4-1.2,1.7-1.8,2.9-1.3
						c2.6,1,5.3,1.5,8.1,1.5c12.8,0,23.2-10.4,23.2-23.2c0-3.9-1-7.7-2.8-11c-0.6-1.1-0.2-2.5,0.9-3.1c1.1-0.6,2.5-0.2,3.1,0.9
						c2.2,4,3.3,8.6,3.3,13.2C225.3,295.9,212.9,308.3,197.6,308.3z"/>
				</g>
				<g>
					<path class="st2" d="M211.4,272.3c-1.2,0-2.2-0.9-2.2-2.1c-0.1-1.2,0.9-2.3,2.1-2.4c13.4-0.7,23.9-11.8,23.9-25.3
						c0-10.2-6.1-19.4-15.5-23.3c-1.1-0.5-1.7-1.8-1.2-2.9c0.5-1.1,1.8-1.7,2.9-1.2c11.1,4.7,18.3,15.4,18.3,27.5
						c0,15.8-12.4,28.9-28.1,29.8C211.4,272.3,211.4,272.3,211.4,272.3z"/>
				</g>
				<g>
					<path class="st3" d="M197.5,222.7c-1,8-4.9,15.6-11.6,21.1c-10.9,9.1-26,9.8-37.6,3"/>
					<path class="st2" d="M165,253.5c-6.1,0-12.3-1.6-17.8-4.9c-1.1-0.6-1.4-2-0.8-3.1s2-1.4,3.1-0.8c11,6.5,25.1,5.4,35-2.8
						c6-5,9.8-11.9,10.8-19.6c0.2-1.2,1.3-2.1,2.5-1.9c1.2,0.2,2.1,1.3,1.9,2.5c-1.1,8.8-5.5,16.8-12.4,22.5
						C180.9,250.8,173,253.5,165,253.5z"/>
				</g>
				<g>
					<path class="st2" d="M201.2,282.5c-1.2,0-2.2-1-2.2-2.2c0-6.8,5.6-12.4,12.4-12.4c1.2,0,2.2,1,2.2,2.2s-1,2.2-2.2,2.2
						c-4.4,0-7.9,3.5-7.9,7.9C203.5,281.5,202.4,282.5,201.2,282.5z"/>
				</g>
				<g>
					<path class="st2" d="M208,272.4c-1,0-1.9-0.7-2.2-1.7c-0.8-3-2.8-5.6-5.5-7.2c-2.7-1.6-5.9-2-8.9-1.2c-1.2,0.3-2.4-0.4-2.8-1.6
						c-0.3-1.2,0.4-2.4,1.6-2.8c4.2-1.1,8.6-0.5,12.3,1.6c3.8,2.2,6.4,5.7,7.6,9.9c0.3,1.2-0.4,2.4-1.6,2.8
						C208.4,272.4,208.2,272.4,208,272.4z"/>
				</g>
				<g>
					<path class="st2" d="M206.7,248.7c-0.8,0-1.7-0.1-2.5-0.2c-5.3-0.7-10.1-3.4-13.4-7.6c-0.8-1-0.6-2.4,0.4-3.2s2.4-0.6,3.2,0.4
						c5.3,6.8,15.1,8,21.9,2.7c1-0.8,2.4-0.6,3.2,0.4c0.8,1,0.6,2.4-0.4,3.2C215.5,247.3,211.2,248.7,206.7,248.7z"/>
				</g>
				<g>
					<path class="st2" d="M192.2,212.8c-0.4,0-0.8-0.1-1.1-0.3c-7.5-4.2-11.4-12.8-9.8-21.3c0.2-1.2,1.4-2,2.6-1.8s2,1.4,1.8,2.6
						c-1.3,6.6,1.8,13.2,7.6,16.5c1.1,0.6,1.5,2,0.8,3.1C193.8,212.3,193,212.8,192.2,212.8z"/>
				</g>
				<g>
					<path class="st2" d="M152.5,202.9c-1.2,0-2.4-0.1-3.6-0.3s-2-1.4-1.8-2.6c0.2-1.2,1.4-2,2.6-1.8c8.5,1.5,16.6-4.1,18.1-12.6
						c0.2-1.2,1.4-2,2.6-1.8s2,1.4,1.8,2.6C170.5,196.1,162,202.9,152.5,202.9z"/>
				</g>
				<g>
					<path class="st2" d="M166.7,228.8c-0.8,0-1.6-0.5-2-1.3c-4.9-9.9-0.8-22,9.1-26.9c1.1-0.5,2.5-0.1,3,1c0.6,1.1,0.1,2.5-1,3
						c-7.7,3.8-10.9,13.2-7.1,20.9c0.6,1.1,0.1,2.5-1,3C167.4,228.7,167.1,228.8,166.7,228.8z"/>
				</g>
				<g>
					<path class="st2" d="M178.4,285.6c-0.3,0-0.7-0.1-1-0.2c-6.3-3.2-10.5-9.6-10.9-16.7c-0.1-1.2,0.9-2.3,2.1-2.4
						c1.2-0.1,2.3,0.9,2.4,2.1c0.3,5.5,3.6,10.5,8.4,13c1.1,0.6,1.5,1.9,1,3C180,285.2,179.2,285.6,178.4,285.6z"/>
				</g>
				<g>
					<path class="st2" d="M169.5,306.8c-1.1,0-2-0.8-2.2-1.9c-1.3-8.5-9.3-14.3-17.8-13c-1.2,0.2-2.4-0.7-2.6-1.9s0.7-2.4,1.9-2.6
						c10.9-1.7,21.2,5.8,22.9,16.8c0.2,1.2-0.7,2.4-1.9,2.6C169.7,306.8,169.6,306.8,169.5,306.8z"/>
				</g>
				<g>
					<path class="st2" d="M210.1,231.1c-0.8,0-1.5-0.4-1.9-1.1c-0.6-1.1-0.3-2.4,0.8-3.1c7.5-4.5,11.9-12.4,11.9-21.1
						c0-13.6-11.1-24.7-24.7-24.7c-4,0-7.7,0.9-11.2,2.7c-1.1,0.6-2.5,0.1-3-1c-0.6-1.1-0.1-2.5,1-3c4.1-2.1,8.7-3.2,13.3-3.2
						c16.1,0,29.2,13.1,29.2,29.2c0,10.3-5.3,19.6-14.1,25C210.9,231,210.5,231.1,210.1,231.1z"/>
				</g>
				<g>
					<path class="st2" d="M175,204.7c-0.8,0-1.6-0.4-2-1.2c-0.6-1.1-0.2-2.5,0.9-3.1c5-2.8,8.1-8,8.1-13.7c0-8.7-7-15.7-15.7-15.7
						c-8.7,0-15.7,7-15.7,15.7c0,1.2-1,2.2-2.2,2.2c-1.2,0-2.2-1-2.2-2.2c0-11.1,9.1-20.2,20.2-20.2c11.1,0,20.2,9.1,20.2,20.2
						c0,7.3-4,14.1-10.4,17.6C175.8,204.6,175.4,204.7,175,204.7z"/>
				</g>
			</g>
			<g>
				<path class="st2" d="M148.2,348.9c-1.2,0-2.2-1-2.2-2.2v-203c0-1.2,1-2.2,2.2-2.2c1.2,0,2.2,1,2.2,2.2v203
					C150.4,347.9,149.4,348.9,148.2,348.9z"/>
			</g>
			<g>
				<path class="st2" d="M148.2,365.9c-1.2,0-2.2-1-2.2-2.2v-6.8c0-1.2,1-2.2,2.2-2.2c1.2,0,2.2,1,2.2,2.2v6.8
					C150.4,364.9,149.4,365.9,148.2,365.9z"/>
			</g>
			<g>
				<path class="st2" d="M148.3,135.8c-1.2,0-2.2-1-2.2-2.2v-6.8c0-1.2,1-2.2,2.2-2.2c1.2,0,2.2,1,2.2,2.2v6.8
					C150.6,134.8,149.6,135.8,148.3,135.8z"/>
			</g>
			<g>
				<path class="st2" d="M134.9,224.4h-8.8c-1.2,0-2.2-1-2.2-2.2s1-2.2,2.2-2.2h8.8c1.2,0,2.2,1,2.2,2.2S136.2,224.4,134.9,224.4z"
					/>
			</g>
			<g>
				<path class="st2" d="M113.6,224.4h-8.8c-1.2,0-2.2-1-2.2-2.2s1-2.2,2.2-2.2h8.8c1.2,0,2.2,1,2.2,2.2S114.9,224.4,113.6,224.4z"
					/>
			</g>
			<g>
				<path class="st2" d="M101.5,247.5h-8.8c-1.2,0-2.2-1-2.2-2.2s1-2.2,2.2-2.2h8.8c1.2,0,2.2,1,2.2,2.2S102.7,247.5,101.5,247.5z"
					/>
			</g>
			<g>
				<path class="st2" d="M79.6,247.5h-8.8c-1.2,0-2.2-1-2.2-2.2s1-2.2,2.2-2.2h8.8c1.2,0,2.2,1,2.2,2.2S80.8,247.5,79.6,247.5z"/>
			</g>
			<g>
				<path class="st2" d="M135,270.2h-8.8c-1.2,0-2.2-1-2.2-2.2s1-2.2,2.2-2.2h8.8c1.2,0,2.2,1,2.2,2.2S136.2,270.2,135,270.2z"/>
			</g>
			<g>
				<path class="st2" d="M113.7,270.2h-8.8c-1.2,0-2.2-1-2.2-2.2s1-2.2,2.2-2.2h8.8c1.2,0,2.2,1,2.2,2.2S114.9,270.2,113.7,270.2z"
					/>
			</g>
			<g>
				<path class="st2" d="M148.2,202.9H127c-0.6,0-1.2-0.2-1.6-0.7L108.2,185H14c-1.2,0-2.2-1-2.2-2.2s1-2.2,2.2-2.2h95.1
					c0.6,0,1.2,0.2,1.6,0.7l17.2,17.2h20.3c1.2,0,2.2,1,2.2,2.2S149.4,202.9,148.2,202.9z"/>
			</g>
			<g>
				<path class="st2" d="M3.3,194.9c-6.7,0-12.1-5.4-12.1-12.1s5.5-12.2,12.1-12.2s12.1,5.4,12.1,12.1
					C15.4,189.4,10,194.9,3.3,194.9z M3.3,175.1c-4.2,0-7.6,3.4-7.6,7.6c0,4.2,3.4,7.6,7.6,7.6s7.6-3.4,7.6-7.6
					C10.9,178.5,7.5,175.1,3.3,175.1z"/>
			</g>
			<g>
				<path class="st2" d="M109.1,309.6H14c-1.2,0-2.2-1-2.2-2.2s1-2.2,2.2-2.2h94.2l17.2-17.2c0.4-0.4,1-0.7,1.6-0.7h21.2
					c1.2,0,2.2,1,2.2,2.2s-1,2.2-2.2,2.2h-20.3l-17.2,17.2C110.3,309.4,109.7,309.6,109.1,309.6z"/>
			</g>
			<g>
				<path class="st2" d="M3.3,319.5c-6.7,0-12.1-5.4-12.1-12.1s5.4-12.1,12.1-12.1s12.1,5.4,12.1,12.1S10,319.5,3.3,319.5z
					 M3.3,299.7c-4.2,0-7.6,3.4-7.6,7.6s3.4,7.6,7.6,7.6s7.6-3.4,7.6-7.6S7.5,299.7,3.3,299.7z"/>
			</g>
			<g>
				<path class="st2" d="M64.3,281.1h-83.1c-1.2,0-2.2-1-2.2-2.2s1-2.2,2.2-2.2h82.2l10.2-10.2c0.4-0.4,1-0.7,1.6-0.7h17.2
					c1.2,0,2.2,1,2.2,2.2s-1,2.2-2.2,2.2H76.1l-10.2,10.2C65.5,280.8,64.9,281.1,64.3,281.1z"/>
			</g>
			<g>
				<path class="st2" d="M-29.9,290.9c-6.7,0-12.1-5.4-12.1-12.1s5.4-12.1,12.1-12.1s12.1,5.4,12.1,12.1S-23.2,290.9-29.9,290.9z
					 M-29.9,271.2c-4.2,0-7.6,3.4-7.6,7.6s3.4,7.6,7.6,7.6s7.6-3.4,7.6-7.6S-25.7,271.2-29.9,271.2z"/>
			</g>
			<g>
				<path class="st2" d="M92.4,224.1H75.2c-0.6,0-1.2-0.2-1.6-0.7l-10.2-10.1h-82.2c-1.2,0-2.2-1-2.2-2.2s1-2.2,2.2-2.2h83.1
					c0.6,0,1.2,0.2,1.6,0.7l10.2,10.2h16.3c1.2,0,2.2,1,2.2,2.2S93.6,224.1,92.4,224.1z"/>
			</g>
			<g>
				<path class="st2" d="M-29.9,223.1c-6.7,0-12.1-5.4-12.1-12.1c0-6.7,5.4-12.1,12.1-12.1s12.1,5.4,12.1,12.1
					C-17.8,217.7-23.2,223.1-29.9,223.1z M-29.9,203.4c-4.2,0-7.6,3.4-7.6,7.6s3.4,7.6,7.6,7.6s7.6-3.4,7.6-7.6
					C-22.3,206.8-25.7,203.4-29.9,203.4z"/>
			</g>
			<g>
				<path class="st2" d="M-57.6,257.3c-6.7,0-12.1-5.4-12.1-12.1s5.4-12.1,12.1-12.1s12.1,5.4,12.1,12.1S-51,257.3-57.6,257.3z
					 M-57.6,237.6c-4.2,0-7.6,3.4-7.6,7.6s3.4,7.6,7.6,7.6s7.6-3.4,7.6-7.6S-53.4,237.6-57.6,237.6z"/>
			</g>
			<g>
				<path class="st2" d="M57.6,247.4H-47.8c-1.2,0-2.3-1-2.3-2.2s1-2.2,2.3-2.2H57.6c1.2,0,2.2,1,2.2,2.2S58.9,247.4,57.6,247.4z"/>
			</g>
			<g>
				<path class="st2" d="M148,247.4h-33.3c-1.2,0-2.2-1-2.2-2.2s1-2.2,2.2-2.2H148c1.2,0,2.2,1,2.2,2.2S149.2,247.4,148,247.4z"/>
			</g>
		</g>
	</g>
</g>
</svg>
