<?xml version="1.0" standalone="no"?>
<!DOCTYPE svg PUBLIC "-//W3C//DTD SVG 20010904//EN"
 "http://www.w3.org/TR/2001/REC-SVG-20010904/DTD/svg10.dtd">
<svg version="1.0" xmlns="http://www.w3.org/2000/svg"
 width="1080.000000pt" height="975.000000pt" viewBox="0 0 1080.000000 975.000000"
 preserveAspectRatio="xMidYMid meet">
<metadata>
Created by potrace 1.15, written by Peter Selinger 2001-2017
</metadata>
<g transform="translate(0.000000,975.000000) scale(0.100000,-0.100000)"
fill="#FFFFFF" stroke="none">
<path d="M7246 8759 c-26 -20 -26 -21 -26 -160 0 -126 2 -141 20 -159 25 -25
61 -26 91 -1 22 18 24 28 27 132 5 140 -6 183 -50 198 -38 14 -31 15 -62 -10z"/>
<path d="M7254 8228 c-12 -5 -27 -21 -33 -34 -8 -18 -11 -278 -11 -899 l0
-875 -287 0 -287 0 -286 285 -286 285 -1514 2 -1513 3 -12 42 c-40 135 -158
238 -304 265 -200 37 -403 -110 -441 -319 -29 -166 63 -339 218 -411 81 -37
213 -43 294 -13 108 41 190 125 228 234 l18 52 1483 3 1483 2 286 -285 286
-285 317 0 317 0 0 -640 0 -640 -501 0 c-499 0 -530 -2 -551 -34 -14 -21 -8
-66 12 -86 19 -19 33 -20 530 -20 l510 0 0 -640 0 -640 -317 0 -317 0 -286
-285 -285 -285 -1482 0 -1481 0 -13 38 c-20 62 -48 112 -91 158 -141 153 -379
163 -533 22 -70 -64 -100 -116 -121 -206 -39 -172 43 -340 204 -419 73 -37 80
-38 177 -37 80 0 109 5 146 22 96 45 176 130 208 223 l19 54 1511 5 1511 5
288 288 287 287 288 0 287 0 0 -882 c0 -689 3 -888 13 -908 19 -38 61 -49 95
-23 l27 20 5 530 5 529 35 -41 c85 -99 204 -178 335 -222 67 -22 99 -26 200
-27 140 -1 196 11 314 65 99 46 199 124 259 201 44 57 114 184 125 227 5 21
10 23 39 17 439 -88 854 129 1018 533 76 187 81 448 11 631 -12 32 -17 56 -11
58 42 14 180 120 250 191 182 186 270 404 270 666 -1 260 -91 475 -280 666
-59 60 -120 110 -163 135 -48 28 -66 43 -62 54 39 100 50 170 49 320 -1 138
-3 164 -27 243 -29 94 -80 204 -130 277 -45 66 -163 186 -232 235 -231 164
-538 214 -802 130 -43 -13 -82 -25 -88 -25 -5 0 -23 26 -40 58 -41 78 -172
209 -254 251 -269 141 -575 89 -783 -134 l-38 -40 0 501 c0 463 -1 503 -17
522 -23 26 -52 33 -79 20z m759 -957 c250 -82 396 -344 331 -594 -34 -133
-108 -235 -224 -307 -172 -108 -246 -182 -310 -315 -51 -107 -65 -171 -64
-290 1 -80 7 -117 29 -184 38 -119 79 -153 133 -115 40 28 41 52 11 139 -53
149 -35 311 49 441 43 66 112 133 163 160 57 29 142 90 179 127 l34 35 26 -67
c15 -37 43 -93 64 -123 46 -70 146 -165 208 -198 40 -20 50 -22 72 -12 15 6
31 23 37 36 20 43 3 73 -71 126 -111 81 -178 190 -202 328 -10 58 -10 84 0
130 27 123 34 180 28 249 l-6 72 56 20 c91 35 143 43 259 43 79 0 133 -6 190
-21 158 -41 318 -143 418 -266 65 -81 142 -241 161 -337 61 -301 -58 -620
-295 -788 -87 -63 -99 -76 -99 -110 0 -38 31 -70 69 -70 62 0 239 151 322 274
24 36 49 66 55 66 23 0 153 -100 210 -163 93 -103 151 -210 191 -358 13 -46
17 -101 17 -194 -1 -114 -4 -140 -28 -215 -49 -149 -100 -234 -201 -336 -142
-144 -265 -205 -474 -238 -57 -9 -104 -16 -105 -14 -1 2 -16 30 -32 62 -67
137 -221 246 -378 269 -102 15 -222 -1 -248 -33 -23 -29 -23 -62 1 -91 18 -23
25 -24 148 -24 122 0 131 -1 186 -29 32 -16 77 -51 101 -76 46 -49 94 -130 77
-130 -5 0 -34 -23 -65 -51 -65 -60 -111 -145 -127 -237 -10 -58 -10 -66 8 -90
43 -58 133 -25 133 49 0 56 23 110 67 159 53 59 98 77 213 84 47 4 110 13 140
21 65 17 71 13 96 -70 45 -149 41 -317 -10 -465 -39 -111 -81 -175 -181 -275
-75 -76 -106 -99 -185 -138 -53 -27 -126 -54 -165 -62 -84 -17 -230 -19 -307
-4 l-55 11 -6 92 c-8 117 -28 192 -77 291 -66 135 -180 253 -298 310 -32 15
-83 53 -115 84 -80 77 -124 159 -148 273 -10 51 -19 94 -19 95 0 1 -14 10 -31
18 -28 15 -33 15 -62 -2 -28 -16 -32 -25 -35 -65 -7 -101 53 -259 137 -366 50
-62 136 -132 211 -170 79 -39 177 -142 223 -232 117 -234 76 -492 -107 -675
-78 -77 -180 -135 -274 -154 -74 -15 -196 -13 -271 4 -194 46 -364 214 -416
411 -10 38 -18 127 -22 252 l-6 192 65 0 c145 0 293 -75 385 -196 41 -53 67
-109 88 -190 23 -89 72 -119 122 -72 65 61 -17 278 -157 418 -117 118 -242
173 -420 187 l-80 6 0 587 0 587 83 -29 c121 -43 178 -56 292 -68 309 -31 641
89 877 318 l57 55 64 -59 c118 -108 264 -164 432 -164 143 0 303 55 388 134
51 48 26 129 -41 129 -15 0 -55 -18 -89 -40 -192 -125 -456 -94 -617 72 l-43
44 58 118 c59 118 100 242 114 340 6 47 4 54 -19 78 -53 53 -107 23 -126 -72
-71 -363 -312 -644 -650 -757 -236 -79 -493 -67 -713 32 l-67 31 0 674 0 674
103 6 c174 9 321 78 437 205 69 75 134 196 152 283 10 50 9 60 -5 83 -24 36
-62 44 -95 19 -17 -13 -33 -41 -47 -89 -26 -85 -47 -127 -92 -182 -88 -108
-242 -182 -382 -182 l-74 0 6 213 c2 116 10 237 17 267 41 187 188 337 378
385 71 18 188 12 265 -14z m-5287 -116 c173 -52 233 -275 106 -401 -50 -50
-98 -69 -178 -69 -61 0 -77 4 -120 30 -72 45 -114 119 -114 202 0 145 86 233
246 252 6 0 33 -6 60 -14z m37 -3990 c121 -58 170 -198 113 -320 -41 -89 -118
-137 -222 -138 -48 -1 -70 5 -105 25 -92 54 -129 118 -129 220 0 100 54 179
152 223 43 20 141 15 191 -10z"/>
<path d="M1532 6399 c-110 -19 -216 -95 -270 -197 -104 -195 -24 -437 176
-530 50 -24 69 -27 162 -27 87 0 113 4 153 22 100 46 175 128 209 228 l17 50
1297 3 1298 2 171 -169 c94 -94 181 -172 195 -176 14 -3 152 -5 306 -3 261 3
284 4 303 22 30 27 27 70 -5 95 -26 20 -39 21 -293 21 l-266 0 -160 161 c-88
88 -169 166 -180 172 -15 9 -349 13 -1344 17 l-1324 5 -12 42 c-41 137 -160
239 -306 263 -35 5 -66 9 -69 9 -3 -1 -29 -5 -58 -10z m194 -174 c30 -19 60
-49 79 -79 27 -44 30 -58 30 -126 0 -68 -3 -82 -30 -126 -44 -70 -108 -107
-195 -112 -56 -3 -74 0 -117 21 -90 46 -133 116 -133 217 0 99 42 169 129 216
38 20 58 24 117 21 59 -2 79 -7 120 -32z"/>
<path d="M5850 5710 c-25 -25 -26 -61 -1 -91 18 -23 25 -24 171 -27 167 -4
205 4 221 45 13 35 12 41 -16 68 -24 25 -27 25 -190 25 -152 0 -167 -2 -185
-20z"/>
<path d="M6530 5710 c-25 -25 -26 -61 -1 -91 18 -23 25 -24 171 -27 167 -4
205 4 221 45 13 35 12 41 -16 68 -24 25 -27 25 -190 25 -152 0 -167 -2 -185
-20z"/>
<path d="M603 5296 c-107 -35 -205 -124 -245 -224 -17 -44 -22 -77 -23 -147 0
-80 4 -97 32 -157 58 -123 162 -199 300 -220 117 -17 238 25 324 114 40 42 99
148 99 180 0 17 55 18 1660 18 l1661 0 24 25 c32 31 32 59 0 90 l-24 25 -1661
0 c-1574 0 -1660 1 -1660 18 0 35 -51 124 -100 176 -72 76 -149 110 -260 113
-51 2 -102 -3 -127 -11z m207 -147 c239 -108 167 -460 -95 -462 -180 -2 -298
190 -215 352 22 43 79 97 124 117 47 20 134 17 186 -7z"/>
<path d="M4766 4974 c-25 -24 -24 -68 1 -96 14 -16 37 -18 185 -18 155 0 170
2 188 20 24 24 26 57 4 88 -15 21 -21 22 -189 22 -144 0 -176 -3 -189 -16z"/>
<path d="M5466 4975 c-26 -27 -29 -56 -8 -84 l19 -26 171 -3 c161 -2 173 -1
192 18 26 26 26 64 0 90 -18 18 -33 20 -189 20 -138 0 -172 -3 -185 -15z"/>
<path d="M4750 4095 l-176 -175 -1297 0 -1297 0 -6 28 c-13 53 -63 138 -106
181 -23 24 -72 58 -108 75 -59 28 -74 31 -165 31 -90 -1 -106 -4 -160 -30
-239 -116 -294 -430 -108 -620 144 -146 375 -150 533 -8 48 43 110 147 110
185 0 17 45 18 1315 18 1105 0 1321 2 1348 14 18 8 104 86 192 175 l160 161
266 0 c254 0 267 1 293 21 33 26 34 68 3 97 -23 22 -29 22 -322 22 l-299 0
-176 -175z m-3047 -20 c121 -57 170 -198 113 -320 -41 -89 -118 -137 -222
-138 -49 -1 -70 5 -106 26 -89 52 -128 120 -128 219 0 103 60 188 159 225 47
17 136 12 184 -12z"/>
<path d="M5854 4244 c-20 -19 -24 -31 -19 -52 13 -54 22 -57 200 -60 164 -3
165 -3 190 22 32 32 32 60 0 91 -24 24 -27 25 -185 25 -159 0 -161 0 -186 -26z"/>
<path d="M6534 4244 c-20 -19 -24 -31 -19 -52 13 -54 22 -57 200 -60 164 -3
165 -3 190 22 32 32 32 60 0 91 -24 24 -27 25 -185 25 -159 0 -161 0 -186 -26z"/>
<path d="M7234 1409 c-17 -19 -19 -37 -19 -156 0 -130 1 -136 24 -154 30 -25
66 -24 91 1 18 18 20 33 20 155 0 122 -2 137 -20 155 -26 26 -72 26 -96 -1z"/>
</g>
</svg>
